<?xml version="1.0" encoding="utf-8"?>
<!-- Generator: Adobe Illustrator 18.1.0, SVG Export Plug-In . SVG Version: 6.00 Build 0)  -->
<!DOCTYPE svg PUBLIC "-//W3C//DTD SVG 1.1//EN" "http://www.w3.org/Graphics/SVG/1.1/DTD/svg11.dtd">
<svg version="1.1" id="Layer_1" xmlns="http://www.w3.org/2000/svg" xmlns:xlink="http://www.w3.org/1999/xlink" x="0px" y="0px"
	 viewBox="0 0 180 181.9" enable-background="new 0 0 180 181.9" xml:space="preserve">
<polygon fill="#638693" points="90.3,2876.2 37.9,2876.2 64.1,2830.9 90.3,2785.5 116.5,2830.9 142.7,2876.2 "/>
<polygon fill="#638693" points="90.3,2997 142.7,2997 116.5,3042.4 90.3,3087.7 64.1,3042.4 37.9,2997 "/>
<g>
	<path fill="#D16C7D" d="M101.9,1892.4v-3.5c0-0.5-0.4-1-1-1h-27c-0.5,0-1,0.4-1,1v3.5c0,0.5,0.4,1,1,1h27
		C101.5,1893.4,101.9,1893,101.9,1892.4L101.9,1892.4z M101.9,1892.4"/>
	<g>
		<path fill="#D16C7D" d="M77.8,1896.8c-0.5,0-1,0.4-1,1v3.5c0,0.5,0.4,1,1,1H97c0.5,0,1-0.4,1-1v-3.5c0-0.5-0.4-1-1-1H77.8z
			 M77.8,1896.8"/>
		<path fill="#D16C7D" d="M133.9,1852.7c-0.2-0.3-0.5-0.5-0.9-0.6l-5.2-0.8c-0.5-0.1-0.9,0.1-1.2,0.5l-18,21.9
			c-0.3,0.4-0.4,1-0.1,1.5c1.5,2.6,3,5.6,4.9,9.5l-0.2,0.7c-1.9,5.4-4,10-5.8,13l-0.1,0.1c0,0,0,0,0,0.1l-0.1,0.1
			c-1.8,3.4-4.8,6.5-8.2,8.7c-3.6,2.3-7.6,3.5-11.4,3.5c-8.5,0-16.1-6.3-19.8-12.5c0,0,0,0,0,0c-1.8-3-3.9-7.6-5.8-13
			c0,0-0.1-0.3-0.2-0.7c1.8-3.9,3.4-6.9,4.8-9.5c0.3-0.5,0.2-1.1-0.1-1.5L48.4,1852c-0.3-0.3-0.7-0.5-1.2-0.5l-5.3,0.6
			c-0.4,0-0.7,0.3-0.9,0.6c-0.2,0.3-0.3,0.7-0.2,1.1l4.9,16.5c0.1,0.4,0.4,0.7,0.8,0.9c1.2,0.5,2.2,1.9,2.7,3.9c0,0,0,0,0,0
			c1.1,4.1,3.5,11.1,6.2,17.5c1.6,4.1,3.3,7.6,4.9,10.2c4.6,7.7,14.5,16.6,27.1,16.6c10.8,0,21.7-6.7,27.1-16.6
			c1.6-2.7,3.3-6.1,4.9-10.2c2.8-6.4,5.1-13.4,6.2-17.5c0,0,0,0,0,0c0.5-2,1.4-3.4,2.7-3.9c0.3-0.1,0.6-0.3,0.7-0.6l5-16.9
			C134.1,1853.4,134.1,1853,133.9,1852.7L133.9,1852.7z M133.9,1852.7"/>
	</g>
	<path fill="#D16C7D" d="M97,1884.5c0.5,0,1-0.4,1-1v-3.5c0-0.5-0.4-1-1-1H77.8c-0.5,0-1,0.4-1,1v3.5c0,0.5,0.4,1,1,1H97z
		 M97,1884.5"/>
	<g>
		<path fill="#D16C7D" d="M123.6,1849.9c0.3-0.3,0.4-0.8,0.2-1.2c-0.1-0.4-0.5-0.8-0.9-0.9c-6.5-1.7-11.5-4.8-14.9-9.3
			c-2.6-3.4-4.1-7.5-4.6-12.2c0-0.4-0.3-0.8-0.7-1c-0.4-0.2-0.8-0.2-1.2-0.1c-4.6,2.1-11.4,4.5-17.5,4.5c-2.5,0-4.7-0.4-6.5-1.2
			c-2.7-1.1-4.7-3.1-6.1-5.7c-0.3-0.5-0.9-0.8-1.5-0.7c-13.8,3.5-19.1,17-21,24.7c-0.1,0.4,0,0.8,0.3,1.2l18.6,21.9
			c0.2,0.3,0.6,0.5,1,0.5c0,0,0,0,0.1,0c0.4,0,0.8-0.2,1-0.5c5.2-7.2,10.6-10.4,17.6-10.4c7,0,12.4,3.2,17.6,10.4
			c0.2,0.3,0.6,0.5,1,0.5c0.4,0,0.8-0.2,1.1-0.5L123.6,1849.9z M123.6,1849.9"/>
		<path fill="#D16C7D" d="M46.7,1822.8l0.6,9.3c0,0.6,0.5,1.2,1.1,1.3c0.6,0.1,1.2-0.2,1.5-0.7c5.2-10,13.5-16,23.8-17.2
			c0,0,1.6-0.2,2.1,0.3c0.4,0.4,0.8,1.7,0.8,1.7c0.6,2.6,1.9,4.3,3.9,5.2c1.2,0.5,2.6,0.7,4.2,0.7c7.1,0,17.2-5.2,20.1-6.7
			c2.5-1.4,4.6-0.9,3.9,2.8c-0.1,0.8-1.4,8.2,3.4,14.5c2.8,3.7,7.2,6.2,13.2,7.3c0.4,0.1,0.9-0.1,1.1-0.3c0.3-0.2,0.5-0.6,0.5-1
			l1.1-17.3c0,0,0.7-7.2-3.9-13.1c-5.9-7.5-18.9-11.2-36.8-11.2c-17.9,0-30.8,3.8-36.8,11.2C45.8,1815.6,46.7,1821.5,46.7,1822.8
			L46.7,1822.8z M46.7,1822.8"/>
	</g>
</g>
<g>
	<path fill="#638693" d="M134.5,2397.2h-89c-9.4,0-17-7.6-17-17v-89c0-9.4,7.6-17,17-17h89c9.4,0,17,7.6,17,17v89
		C151.5,2389.6,143.9,2397.2,134.5,2397.2z"/>
	<g>
		<g>
			<path fill="#D5EEF7" d="M114.5,2307.7c-4.2-4.2-9.2-7.3-14.6-9.1v11.4c2.6,1.3,5,2.9,7.1,5.1c10.6,10.6,10.6,27.9,0,38.5
				c-10.6,10.6-27.9,10.6-38.5,0c-10.6-10.6-10.6-27.9,0-38.5c0,0,0.1-0.1,0.2-0.1l6.3,6.3l-0.1-20l-19.9,0l6.3,6.3
				c-0.1,0.1-0.1,0.1-0.2,0.2c-14.7,14.7-14.7,38.6,0,53.3c14.8,14.7,38.6,14.7,53.4,0C129.2,2346.3,129.2,2322.4,114.5,2307.7
				L114.5,2307.7z M114.5,2307.7"/>
		</g>
	</g>
</g>
<g>
	<path fill="#638693" d="M134.5,2648.2h-89c-9.4,0-17-7.6-17-17v-89c0-9.4,7.6-17,17-17h89c9.4,0,17,7.6,17,17v89
		C151.5,2640.6,143.9,2648.2,134.5,2648.2z"/>
	<g>
		<path fill="#D5EEF7" d="M71,2553.3h38.7v9.7h4.8v-9.7c0-2.7-2.2-4.8-4.8-4.8H71c-2.7,0-4.8,2.2-4.8,4.8v9.7H71V2553.3z M71,2553.3
			"/>
		<path fill="#D5EEF7" d="M124.1,2567.8H56.5c-2.7,0-4.8,2.2-4.8,4.8v24.2c0,2.7,2.2,4.8,4.8,4.8h9.7v19.3c0,2.7,2.2,4.8,4.8,4.8
			h38.7c2.7,0,4.8-2.2,4.8-4.8v-19.3h9.7c2.7,0,4.8-2.2,4.8-4.8v-24.2C129,2570,126.8,2567.8,124.1,2567.8L124.1,2567.8z
			 M109.7,2621H71v-33.8h38.7V2621z M119.3,2582.3c-2.7,0-4.8-2.2-4.8-4.8c0-2.7,2.2-4.8,4.8-4.8c2.7,0,4.8,2.2,4.8,4.8
			C124.1,2580.1,122,2582.3,119.3,2582.3L119.3,2582.3z M119.3,2582.3"/>
		<rect x="75.8" y="2592" fill="#D5EEF7" width="19.3" height="4.8"/>
		<rect x="75.8" y="2601.6" fill="#D5EEF7" width="29" height="4.8"/>
		<rect x="75.8" y="2611.3" fill="#D5EEF7" width="29" height="4.8"/>
	</g>
</g>
<g>
	<path fill="#9374B4" d="M98.6,1624.2v-4.4h8.3c7.5,0,13.6-6.1,13.6-13.6v-58.9c0-7.5-6.1-13.6-13.6-13.6H68
		c-7.5,0-13.6,6.1-13.6,13.6v58.9c0,7.5,6.1,13.6,13.6,13.6h8.3v4.4c0,3,2.5,5.5,5.5,5.5h3c0.1,6.1,1.2,18.2,8.3,22.8
		c5.5,3.6,5.4,15.2,4.9,19.4c-0.2,1.4,0.8,2.7,2.3,2.9c0.1,0,0.2,0,0.3,0c1.3,0,2.4-1,2.6-2.3c0.1-0.7,2.1-18.3-7.2-24.4
		c-4.6-3-5.8-12.6-5.9-18.5h3.1C96.1,1629.8,98.6,1627.3,98.6,1624.2z M76.4,1554h-4.1c-1.4,0-2.6,1.2-2.6,2.6
		c0,1.4,1.2,2.6,2.6,2.6h4.1v2.1h-2.4c-0.7,0-1.3,0.6-1.3,1.3c0,0.7,0.6,1.3,1.3,1.3h2.4v2.9h-2.4c-0.7,0-1.3,0.6-1.3,1.3
		c0,0.7,0.6,1.3,1.3,1.3h2.4v2.3h-4.1c-1.4,0-2.6,1.2-2.6,2.6c0,1.4,1.2,2.6,2.6,2.6h4.1v2.4h-2.4c-0.7,0-1.3,0.6-1.3,1.3
		s0.6,1.3,1.3,1.3h2.4v2.9h-2.4c-0.7,0-1.3,0.6-1.3,1.3c0,0.7,0.6,1.3,1.3,1.3h2.4v3.6h-2.9c-3.2,0-5.8-2.6-5.8-5.8v-32.1
		c0-3.2,2.6-5.8,5.8-5.8h2.9V1554z M81.6,1591v-3.6h5c0.7,0,1.3-0.6,1.3-1.3c0-0.7-0.6-1.3-1.3-1.3h-5v-2.9h5c0.7,0,1.3-0.6,1.3-1.3
		s-0.6-1.3-1.3-1.3h-5v-2.4h9.9c1.4,0,2.6-1.2,2.6-2.6c0-1.4-1.2-2.6-2.6-2.6h-9.9v-2.3h5c0.7,0,1.3-0.6,1.3-1.3
		c0-0.7-0.6-1.3-1.3-1.3h-5v-2.9h5c0.7,0,1.3-0.6,1.3-1.3c0-0.7-0.6-1.3-1.3-1.3h-5v-2.1h9.9c1.4,0,2.6-1.2,2.6-2.6
		c0-1.4-1.2-2.6-2.6-2.6h-9.9v-6.7H101c3.2,0,5.8,2.6,5.8,5.8v32.1c0,3.2-2.6,5.8-5.8,5.8L81.6,1591L81.6,1591z"/>
</g>
<g>
	<path fill="#C69D69" d="M74.6,360.2l0.9-4.8c1.8-9.3,6.6-22.1,19-29.6l4.8-2.9l-29.4-18c-3.5-2.2-7.6-3.3-11.7-3.3
		c-7.9,0-15,4-19.1,10.7c-6.4,10.5-3.1,24.3,7.4,30.8L74.6,360.2z M45,315.9c2.8-4.7,7.8-7.4,13.3-7.4c2.9,0,5.7,0.8,8.1,2.3
		L86.5,323c-9.7,7.7-14.4,18.3-16.6,26.3l-19.8-12.1C42.8,332.8,40.5,323.2,45,315.9z"/>
	<path fill="#C69D69" d="M130.7,343.1L104.4,327l-0.5,0.2c-3.1,1.3-5.7,2.9-8,4.8l25.3,15.4c1,0.6,1.3,1.8,0.7,2.8
		c-0.4,0.6-1.1,1-1.7,1c-0.4,0-0.7-0.1-1.1-0.3l-25.4-15.5c-0.3-0.2-0.6-0.5-0.7-0.9c-9.3,9.1-11.9,21.4-12.6,27.3l-0.1,0.6l28,17.1
		c3.4,2.1,7.2,3.1,11.2,3.1c7.5,0,14.4-3.8,18.3-10.2C144,362.5,140.8,349.3,130.7,343.1z"/>
</g>
<g>
	<g>
		<path fill="#C69D69" d="M23.2,815.1v70.1c0,5.7,4.6,10.2,10.2,10.2h113.1c5.7,0,10.2-4.6,10.2-10.2v-70.1
			c0-5.7-4.6-10.2-10.2-10.2H33.4C27.8,804.9,23.2,809.4,23.2,815.1z M128.1,819.6c3.1,0,5.5,2.5,5.5,5.5c0,3.1-2.5,5.5-5.5,5.5
			c-3.1,0-5.5-2.5-5.5-5.5C122.5,822.1,125,819.6,128.1,819.6L128.1,819.6z M116.4,816.4v36.2H92.8l-6.1,17.2l-7.8-17.2h-8.3
			l-9.9-34.3l-10.1,34.3H34.8v-36.2H116.4z M34.8,883.9V857h19.1l6.8-23.2l6.7,23.2h8.7l11,24.4l8.7-24.4h20.5v26.9H34.8z
			 M128.1,834.5c3.1,0,5.5,2.5,5.5,5.5c0,3.1-2.5,5.5-5.5,5.5c-3.1,0-5.5-2.5-5.5-5.5C122.5,837,125,834.5,128.1,834.5L128.1,834.5z
			 M134.8,877.1H124v-6.9h10.8V877.1z M134.8,865.1H124v-6.9h10.8V865.1z M149.3,877.1h-10.8v-6.9h10.8V877.1z M149.3,865.1h-10.8
			v-6.9h10.8V865.1z M144.7,845.6c-3.1,0-5.5-2.5-5.5-5.5c0-3.1,2.5-5.5,5.5-5.5c3.1,0,5.5,2.5,5.5,5.5
			C150.2,843.1,147.7,845.6,144.7,845.6L144.7,845.6z M144.7,830.7c-3.1,0-5.5-2.5-5.5-5.5c0-3.1,2.5-5.5,5.5-5.5
			c3.1,0,5.5,2.5,5.5,5.5C150.2,828.2,147.7,830.7,144.7,830.7L144.7,830.7z M144.7,830.7"/>
	</g>
</g>
<g>
	<g>
		<path fill="#99BC70" d="M117.4,1048.3c-2.9-0.5-5.6,1.4-6.1,4.3c-0.4,2.3,0.7,4.4,2.6,5.5l-6.3,35.6l0.3,3.6l-6.5,36.6l-0.9,6.2
			l-9.5-9.5v-33.3l0.9-3.5v-36.1c2-0.7,3.5-2.7,3.5-5c0-2.9-2.4-5.3-5.3-5.3s-5.3,2.4-5.3,5.3c0,2.3,1.5,4.2,3.5,5v36.1l0.9,3.5
			v31.6l-12.1-12.1l-5.2-19.6l-0.1-3.6l-9.3-34.9c1.8-1.2,2.7-3.5,2.1-5.7c-0.7-2.8-3.6-4.5-6.5-3.7c-2.8,0.7-4.5,3.6-3.7,6.4
			c0.6,2.2,2.5,3.7,4.7,3.9l9.3,34.9l1.7,3.2l4,14.9l-25.4-25.4c0.9-2,0.6-4.4-1-6c-2.1-2.1-5.4-2.1-7.5,0c-2.1,2.1-2.1,5.4,0,7.5
			c1.6,1.6,4,1.9,6,1l25.5,25.6l3.1,1.9l0.6,0.6l4.3,15.9l7,22.8l-5.3-23.2l-3.5-13l11.1,11.1v3.1l0.9,23.8l0.9-23.8v-1.4l9.2,9.2
			l-2.1,15.2l3.1-14.2l0.2,0.2l17.5,16.2l-16.2-17.4l-1-1l1.5-7l6.5-36.6l1.5-3.3l6.3-35.6c2.1-0.4,3.9-2,4.3-4.3
			C122.2,1051.5,120.3,1048.8,117.4,1048.3L117.4,1048.3z M86.7,1052.7c0-1.9,1.6-3.5,3.5-3.5s3.5,1.6,3.5,3.5s-1.6,3.5-3.5,3.5
			S86.7,1054.7,86.7,1052.7L86.7,1052.7z M60.5,1057.8c-1.9,0.5-3.8-0.6-4.3-2.5c-0.5-1.9,0.6-3.8,2.5-4.3c1.9-0.5,3.8,0.6,4.3,2.5
			C63.5,1055.4,62.4,1057.3,60.5,1057.8L60.5,1057.8z M46.7,1087.5c-1.4,1.4-3.6,1.4-5,0c-1.4-1.4-1.4-3.6,0-5c1.4-1.4,3.6-1.4,5,0
			C48,1083.9,48,1086.1,46.7,1087.5L46.7,1087.5z M115.9,1057c-1.9-0.3-3.2-2.2-2.8-4.1c0.3-1.9,2.2-3.2,4.1-2.9
			c1.9,0.3,3.2,2.2,2.8,4.1C119.6,1056,117.8,1057.3,115.9,1057L115.9,1057z M115.9,1057"/>
	</g>
</g>
<path fill="#0D918E" d="M144,84.7V47.7c0-7.5-4.9-18.5-18.5-18.5c-11.4,0-16.7,7.8-18.1,14.8c-5.5,1.8-9.6,6.9-9.6,13h27.5
	c0-5.8-3.5-10.7-8.6-12.7c0.9-2.7,3.1-5.8,8.7-5.8c8.5,0,9.2,7.1,9.3,9.3v37.1h-102c-2.6,0-4.6,2.1-4.6,4.6V94
	c0,2.6,2.1,4.6,4.6,4.6v13.9c0,10,8.5,19.9,18.3,22.5c-0.5,2.3-1.6,5.3-4.4,5.3c-2.6,0-4.6,2.1-4.6,4.6c0,2.6,2.1,4.6,4.6,4.6
	c8,0,12.7-6.7,13.7-13.9h56c1,7.2,5.7,13.9,13.7,13.9c2.6,0,4.6-2.1,4.6-4.6c0-2.6-2.1-4.6-4.6-4.6c-2.7,0-3.9-3-4.4-5.3
	c9.8-2.6,18.3-12.5,18.3-22.5V98.6c2.6,0,4.6-2.1,4.6-4.6v-4.6C148.6,86.8,146.6,84.7,144,84.7z M134.7,112.5
	c0,6.6-7.3,13.9-13.9,13.9H56c-6.5,0-13.9-7.4-13.9-13.9V98.6h92.7V112.5z M99.8,62.1l0.3-1.1c0.3-1.2,1.5-2,2.8-1.7
	c1.2,0.3,2,1.6,1.7,2.8l-0.3,1.1c-0.3,1.1-1.2,1.8-2.2,1.8c-0.2,0-0.4,0-0.6-0.1C100.2,64.6,99.5,63.4,99.8,62.1z M97.5,71.2
	l0.5-1.8c0.3-1.2,1.5-2,2.8-1.7c1.2,0.3,2,1.6,1.7,2.8l-0.5,1.8c-0.3,1.1-1.2,1.8-2.2,1.8c-0.2,0-0.4,0-0.6-0.1
	C98,73.7,97.2,72.4,97.5,71.2z M95.4,79.5l0.3-1.1c0.3-1.2,1.5-2,2.8-1.7c1.2,0.3,2,1.6,1.7,2.8l-0.3,1.1c-0.3,1.1-1.2,1.8-2.2,1.8
	c-0.2,0-0.4,0-0.6-0.1C95.9,82,95.1,80.8,95.4,79.5z M123.4,62.1c0.3,1.2-0.4,2.5-1.7,2.8c-0.2,0-0.4,0.1-0.6,0.1
	c-1,0-2-0.7-2.2-1.8l-0.3-1.1c-0.3-1.2,0.4-2.5,1.7-2.8c1.2-0.3,2.5,0.4,2.8,1.7L123.4,62.1z M125.6,71.2c0.3,1.2-0.4,2.5-1.7,2.8
	c-0.2,0-0.4,0.1-0.6,0.1c-1,0-2-0.7-2.2-1.8l-0.5-1.8c-0.3-1.2,0.5-2.5,1.7-2.8c1.2-0.3,2.5,0.4,2.8,1.7L125.6,71.2z M124.6,76.7
	c1.2-0.3,2.5,0.4,2.8,1.7l0.3,1.1c0.3,1.2-0.4,2.5-1.7,2.8c-0.2,0.1-0.4,0.1-0.6,0.1c-1,0-2-0.7-2.2-1.8l-0.3-1.1
	C122.6,78.3,123.4,77,124.6,76.7z M109.3,62.7v-1.2c0-1.3,1-2.3,2.3-2.3c1.3,0,2.3,1,2.3,2.3v1.2c0,1.3-1,2.3-2.3,2.3
	C110.3,65,109.3,64,109.3,62.7z M109.3,69.9c0-1.3,1-2.3,2.3-2.3c1.3,0,2.3,1,2.3,2.3v1.8c0,1.3-1,2.3-2.3,2.3c-1.3,0-2.3-1-2.3-2.3
	V69.9z M109.3,78.9c0-1.3,1-2.3,2.3-2.3c1.3,0,2.3,1,2.3,2.3v1.2c0,1.3-1,2.3-2.3,2.3c-1.3,0-2.3-1-2.3-2.3V78.9z"/>
<g>
	<path fill="#D16C7D" d="M138.7,2037.3l-23,26c-1.4-0.9-3.2-0.6-4.3,0.6l-5.8,6.6c-2.4-0.6-5.1,0.2-6.9,2.2L54.5,2123l-4-3.6
		c-0.8-0.7-2.1-0.7-2.9,0.2c-0.7,0.8-0.7,2.1,0.2,2.9l6.6,5.8l-13.1,14.9l-2.9-2.6c-0.8-0.7-2.1-0.7-2.9,0.2
		c-0.7,0.8-0.7,2.1,0.2,2.9l11.4,10c0.8,0.7,2.1,0.7,2.9-0.2c0.7-0.8,0.7-2.1-0.2-2.9l-2.9-2.6l13.1-14.9l6.6,5.8
		c0.8,0.7,2.1,0.7,2.9-0.2c0.7-0.8,0.7-2.1-0.2-2.8l-4-3.6l44.3-50.2c1.8-2,2.2-4.7,1.3-7.1l5.8-6.6c1-1.2,1.1-2.9,0.2-4.1l23-26.1
		c0.2-0.3,0.2-0.7-0.1-1C139.4,2037,139,2037,138.7,2037.3z M107.4,2080.3L85,2105.7l-1.4-1.2l21.5-24.4c0.4-0.4,0.3-1.1-0.1-1.4
		c-0.4-0.4-1.1-0.3-1.4,0.1l-21.5,24.4l-3.6-3.2l22.4-25.4c1.6-1.8,4.4-2,6.2-0.4C108.8,2075.8,109,2078.5,107.4,2080.3z"/>
</g>
<g>
	<path fill="#0D918E" d="M102.9,609.2c0.8,0.5,1.6,0.8,2.5,0.9c1.5,0.1,3.1-0.3,4.3-1.4c2.4-2.1,2.6-5.7,0.5-8l-2.2-2.5l23.8-23.8
		c5-5,5-13.1,0-18.1c-5-5-13.1-5-18.1,0L90.9,579l-1.5-1.6c-2.1-2.4-5.7-2.6-8-0.5c-2.4,2.1-2.6,5.7-0.5,8L102.9,609.2z"/>
	<path fill="#0D918E" d="M68.4,637.7L98,608.1l-12.8-14.1l-26.8,27.4c-0.4,0.4-0.8,0.6-1.3,0.6c-0.5,0-0.9-0.2-1.3-0.5
		c-0.7-0.7-0.7-1.9,0-2.6l26.9-27.4c0,0,0.1,0,0.1-0.1l-2-2.2l-30.5,30.5c-4.2,4.2-4.9,10.6-2,15.5l-6.3,6.9c-1,1.1-0.9,2.9,0.2,3.9
		c0.5,0.5,1.2,0.7,1.9,0.7c0.8,0,1.5-0.3,2.1-0.9l5.9-6.5c2.2,1.5,4.8,2.3,7.3,2.3C62.6,641.5,65.9,640.2,68.4,637.7z"/>
</g>
<path fill="#D16C7D" d="M82.7,1392L82.7,1392c7.5-7.7,9.5-18.9,5.8-28.3c1.3,0.2,2.8-0.2,3.8-1.2c1.7-1.7,1.7-4.5,0-6.3l-2.6-2.6
	l48-48c1.7-1.7,1.7-4.5,0-6.3c-1.7-1.7-4.5-1.7-6.3,0l-48,48l-4.1-4.1c-1.7-1.7-4.5-1.7-6.3,0c-1.3,1.3-1.6,3.2-1,4.8
	c-9.2-3.1-19.8-1-27.2,6.2l-1.5-1.5c-1.7-1.7-4.5-1.7-6.3,0s-1.7,4.5,0,6.3l39.2,39.2c1.7,1.7,4.5,1.7,6.3,0S84.4,1393.7,82.7,1392z
	"/>
</svg>
