<?xml version="1.0" encoding="utf-8"?>
<!-- Generator: Adobe Illustrator 18.1.0, SVG Export Plug-In . SVG Version: 6.00 Build 0)  -->
<!DOCTYPE svg PUBLIC "-//W3C//DTD SVG 1.1//EN" "http://www.w3.org/Graphics/SVG/1.1/DTD/svg11.dtd">
<svg version="1.1" id="Layer_1" xmlns="http://www.w3.org/2000/svg" xmlns:xlink="http://www.w3.org/1999/xlink" x="0px" y="0px"
	 viewBox="0 0 146.4 90.8" enable-background="new 0 0 146.4 90.8" xml:space="preserve">
<rect x="0" y="0" fill="#413C4F" width="146.4" height="90.8"/>
<rect x="-734.8" y="-164.9" fill="#413C4F" width="146.4" height="90.8"/>
<rect x="0" y="-164.9" fill="#413C4F" width="146.4" height="90.8"/>
<g>
	<path fill="#FBB040" d="M85,18.8c2.2,4,3.4,8.6,3.4,13.5c0,15.6-12.7,28.3-28.3,28.3c-4.9,0-9.5-1.2-13.5-3.4
		C51.4,66,60.7,72,71.5,72c15.6,0,28.3-12.7,28.3-28.3C99.8,32.9,93.8,23.6,85,18.8z"/>
</g>
<rect x="-738.2" y="-135.6" fill="none" width="149.8" height="94"/>
<text transform="matrix(1 0 0 1 -717.2931 -106.0502)" fill="#D1D3D4" font-family="'GillSans'" font-size="43.3694">HELG</text>
<g>
	<path fill="#D1D3D4" d="M46.7-113.7v-3.6h9.2v-9.3h3.6v9.3h9.2v3.6h-9.2v9.3h-3.6v-9.3H46.7z"/>
	<path fill="#D1D3D4" d="M74.6-125.9v-2.9c2.8-0.3,4.7-0.7,5.8-1.3c1.1-0.6,1.9-2.1,2.4-4.5h3v30.2h-4.1v-21.5H74.6z"/>
</g>
<rect x="0" y="174" fill="#413C4F" width="146.4" height="90.8"/>
<g>
	<path fill="#D1D3D4" d="M16.9,203.4h4.3v12.9h16v-12.9h4.3v31.1h-4.3V220h-16v14.5h-4.3V203.4z"/>
	<path fill="#D1D3D4" d="M48.9,203.4h22.6v3.8H53v9.4h17.1v3.6H53v10.5h18.8v3.7H48.9V203.4z"/>
	<path fill="#D1D3D4" d="M77.9,203.4h4.2v27.4h15.6v3.7H77.9V203.4z"/>
	<path fill="#D1D3D4" d="M123.1,204.3c3,1.6,4.9,4.5,5.6,8.5h-4.2c-0.5-2.3-1.5-3.9-3.1-5s-3.5-1.6-5.9-1.6c-2.8,0-5.2,1.1-7.1,3.2
		c-1.9,2.2-2.9,5.4-2.9,9.7c0,3.7,0.8,6.7,2.4,9s4.2,3.5,7.8,3.5c2.8,0,5-0.8,6.8-2.4c1.8-1.6,2.7-4.3,2.8-7.9h-9.7v-3.5h13.7v16.6
		h-2.7l-1-4c-1.4,1.6-2.6,2.7-3.7,3.3c-1.8,1-4.1,1.6-6.9,1.6c-3.6,0-6.7-1.2-9.4-3.6c-2.8-3-4.3-7.1-4.3-12.3
		c0-5.2,1.4-9.4,4.2-12.4c2.6-2.9,6.1-4.4,10.3-4.4C118.5,202.6,121,203.2,123.1,204.3z"/>
</g>
</svg>
