<?xml version="1.0" encoding="utf-8"?>
<!-- Generator: Adobe Illustrator 18.1.0, SVG Export Plug-In . SVG Version: 6.00 Build 0)  -->
<!DOCTYPE svg PUBLIC "-//W3C//DTD SVG 1.1//EN" "http://www.w3.org/Graphics/SVG/1.1/DTD/svg11.dtd">
<svg version="1.1" id="Layer_1" xmlns="http://www.w3.org/2000/svg" xmlns:xlink="http://www.w3.org/1999/xlink" x="0px" y="0px"
	 viewBox="0 0 133.4 134.8" enable-background="new 0 0 133.4 134.8" xml:space="preserve">
<polygon fill="#638693" points="67,107.7 14.6,107.7 40.8,62.4 67,17 93.2,62.4 119.4,107.7 "/>
<polygon fill="#638693" points="67,228.5 119.4,228.5 93.2,273.9 67,319.2 40.8,273.9 14.6,228.5 "/>
<g>
	<path fill="#D16C7D" d="M78.6-876.1v-3.5c0-0.5-0.4-1-1-1h-27c-0.5,0-1,0.4-1,1v3.5c0,0.5,0.4,1,1,1h27
		C78.2-875.1,78.6-875.5,78.6-876.1L78.6-876.1z M78.6-876.1"/>
	<g>
		<path fill="#D16C7D" d="M54.5-871.7c-0.5,0-1,0.4-1,1v3.5c0,0.5,0.4,1,1,1h19.2c0.5,0,1-0.4,1-1v-3.5c0-0.5-0.4-1-1-1H54.5z
			 M54.5-871.7"/>
		<path fill="#D16C7D" d="M110.6-915.8c-0.2-0.3-0.5-0.5-0.9-0.6l-5.2-0.8c-0.5-0.1-0.9,0.1-1.2,0.5l-18,21.9
			c-0.3,0.4-0.4,1-0.1,1.5c1.5,2.6,3,5.6,4.9,9.5l-0.2,0.7c-1.9,5.4-4,10-5.8,13l-0.1,0.1c0,0,0,0,0,0.1l-0.1,0.1
			c-1.8,3.4-4.8,6.5-8.2,8.7c-3.6,2.3-7.6,3.5-11.4,3.5c-8.5,0-16.1-6.3-19.8-12.5c0,0,0,0,0,0c-1.8-3-3.9-7.6-5.8-13
			c0,0-0.1-0.3-0.2-0.7c1.8-3.9,3.4-6.9,4.8-9.5c0.3-0.5,0.2-1.1-0.1-1.5l-17.9-21.7c-0.3-0.3-0.7-0.5-1.2-0.5l-5.3,0.6
			c-0.4,0-0.7,0.3-0.9,0.6c-0.2,0.3-0.3,0.7-0.2,1.1l4.9,16.5c0.1,0.4,0.4,0.7,0.8,0.9c1.2,0.5,2.2,1.9,2.7,3.9c0,0,0,0,0,0
			c1.1,4.1,3.5,11.1,6.2,17.5c1.6,4.1,3.3,7.6,4.9,10.2C41.6-858,51.5-849,64.1-849c10.8,0,21.7-6.7,27.1-16.6
			c1.6-2.7,3.3-6.1,4.9-10.2c2.8-6.4,5.1-13.4,6.2-17.5c0,0,0,0,0,0c0.5-2,1.4-3.4,2.7-3.9c0.3-0.1,0.6-0.3,0.7-0.6l5-16.9
			C110.8-915.1,110.8-915.5,110.6-915.8L110.6-915.8z M110.6-915.8"/>
	</g>
	<path fill="#D16C7D" d="M73.7-884c0.5,0,1-0.4,1-1v-3.5c0-0.5-0.4-1-1-1H54.5c-0.5,0-1,0.4-1,1v3.5c0,0.5,0.4,1,1,1H73.7z
		 M73.7-884"/>
	<g>
		<path fill="#D16C7D" d="M100.3-918.6c0.3-0.3,0.4-0.8,0.2-1.2c-0.1-0.4-0.5-0.8-0.9-0.9c-6.5-1.7-11.5-4.8-14.9-9.3
			c-2.6-3.4-4.1-7.5-4.6-12.2c0-0.4-0.3-0.8-0.7-1c-0.4-0.2-0.8-0.2-1.2-0.1c-4.6,2.1-11.4,4.5-17.5,4.5c-2.5,0-4.7-0.4-6.5-1.2
			c-2.7-1.1-4.7-3.1-6.1-5.7c-0.3-0.5-0.9-0.8-1.5-0.7c-13.8,3.5-19.1,17-21,24.7c-0.1,0.4,0,0.8,0.3,1.2l18.6,21.9
			c0.2,0.3,0.6,0.5,1,0.5c0,0,0,0,0.1,0c0.4,0,0.8-0.2,1-0.5c5.2-7.2,10.6-10.4,17.6-10.4c7,0,12.4,3.2,17.6,10.4
			c0.2,0.3,0.6,0.5,1,0.5c0.4,0,0.8-0.2,1.1-0.5L100.3-918.6z M100.3-918.6"/>
		<path fill="#D16C7D" d="M23.4-945.7l0.6,9.3c0,0.6,0.5,1.2,1.1,1.3c0.6,0.1,1.2-0.2,1.5-0.7c5.2-10,13.5-16,23.8-17.2
			c0,0,1.6-0.2,2.1,0.3c0.4,0.4,0.8,1.7,0.8,1.7c0.6,2.6,1.9,4.3,3.9,5.2c1.2,0.5,2.6,0.7,4.2,0.7c7.1,0,17.2-5.2,20.1-6.7
			c2.5-1.4,4.6-0.9,3.9,2.8c-0.1,0.8-1.4,8.2,3.4,14.5c2.8,3.7,7.2,6.2,13.2,7.3c0.4,0.1,0.9-0.1,1.1-0.3c0.3-0.2,0.5-0.6,0.5-1
			l1.1-17.3c0,0,0.7-7.2-3.9-13.1c-5.9-7.5-18.9-11.2-36.8-11.2c-17.9,0-30.8,3.8-36.8,11.2C22.5-952.9,23.4-947,23.4-945.7
			L23.4-945.7z M23.4-945.7"/>
	</g>
</g>
<g>
	<path fill="#638693" d="M111.2-371.3h-89c-9.4,0-17-7.6-17-17v-89c0-9.4,7.6-17,17-17h89c9.4,0,17,7.6,17,17v89
		C128.2-378.9,120.6-371.3,111.2-371.3z"/>
	<g>
		<g>
			<path fill="#D5EEF7" d="M91.1-460.8c-4.2-4.2-9.2-7.3-14.6-9.1v11.4c2.6,1.3,5,2.9,7.1,5.1c10.6,10.6,10.6,27.9,0,38.5
				c-10.6,10.6-27.9,10.6-38.5,0c-10.6-10.6-10.6-27.9,0-38.5c0,0,0.1-0.1,0.2-0.1l6.3,6.3l-0.1-20l-19.9,0l6.3,6.3
				c-0.1,0.1-0.1,0.1-0.2,0.2c-14.7,14.7-14.7,38.6,0,53.3c14.8,14.7,38.6,14.7,53.4,0C105.8-422.2,105.9-446.1,91.1-460.8
				L91.1-460.8z M91.1-460.8"/>
		</g>
	</g>
</g>
<g>
	<path fill="#638693" d="M111.2-120.3h-89c-9.4,0-17-7.6-17-17v-89c0-9.4,7.6-17,17-17h89c9.4,0,17,7.6,17,17v89
		C128.2-127.9,120.6-120.3,111.2-120.3z"/>
	<g>
		<path fill="#D5EEF7" d="M47.7-215.2h38.7v9.7h4.8v-9.7c0-2.7-2.2-4.8-4.8-4.8H47.7c-2.7,0-4.8,2.2-4.8,4.8v9.7h4.8V-215.2z
			 M47.7-215.2"/>
		<path fill="#D5EEF7" d="M100.8-200.7H33.2c-2.7,0-4.8,2.2-4.8,4.8v24.2c0,2.7,2.2,4.8,4.8,4.8h9.7v19.3c0,2.7,2.2,4.8,4.8,4.8
			h38.7c2.7,0,4.8-2.2,4.8-4.8v-19.3h9.7c2.7,0,4.8-2.2,4.8-4.8v-24.2C105.7-198.5,103.5-200.7,100.8-200.7L100.8-200.7z
			 M86.3-147.5H47.7v-33.8h38.7V-147.5z M96-186.2c-2.7,0-4.8-2.2-4.8-4.8c0-2.7,2.2-4.8,4.8-4.8c2.7,0,4.8,2.2,4.8,4.8
			C100.8-188.4,98.7-186.2,96-186.2L96-186.2z M96-186.2"/>
		<rect x="52.5" y="-176.5" fill="#D5EEF7" width="19.3" height="4.8"/>
		<rect x="52.5" y="-166.9" fill="#D5EEF7" width="29" height="4.8"/>
		<rect x="52.5" y="-157.2" fill="#D5EEF7" width="29" height="4.8"/>
	</g>
</g>
<g>
	<path fill="#9374B4" d="M75.3-1144.3v-4.4h8.3c7.5,0,13.6-6.1,13.6-13.6v-58.9c0-7.5-6.1-13.6-13.6-13.6H44.7
		c-7.5,0-13.6,6.1-13.6,13.6v58.9c0,7.5,6.1,13.6,13.6,13.6H53v4.4c0,3,2.5,5.5,5.5,5.5h3c0.1,6.1,1.2,18.2,8.3,22.8
		c5.5,3.6,5.4,15.2,4.9,19.4c-0.2,1.4,0.8,2.7,2.3,2.9c0.1,0,0.2,0,0.3,0c1.3,0,2.4-1,2.6-2.3c0.1-0.7,2.1-18.3-7.2-24.4
		c-4.6-3-5.8-12.6-5.9-18.5h3.1C72.8-1138.7,75.3-1141.2,75.3-1144.3z M53.1-1214.5H49c-1.4,0-2.6,1.2-2.6,2.6
		c0,1.4,1.2,2.6,2.6,2.6h4.1v2.1h-2.4c-0.7,0-1.3,0.6-1.3,1.3c0,0.7,0.6,1.3,1.3,1.3h2.4v2.9h-2.4c-0.7,0-1.3,0.6-1.3,1.3
		c0,0.7,0.6,1.3,1.3,1.3h2.4v2.3H49c-1.4,0-2.6,1.2-2.6,2.6c0,1.4,1.2,2.6,2.6,2.6h4.1v2.4h-2.4c-0.7,0-1.3,0.6-1.3,1.3
		s0.6,1.3,1.3,1.3h2.4v2.9h-2.4c-0.7,0-1.3,0.6-1.3,1.3s0.6,1.3,1.3,1.3h2.4v3.6h-2.9c-3.2,0-5.8-2.6-5.8-5.8v-32.1
		c0-3.2,2.6-5.8,5.8-5.8h2.9V-1214.5z M58.3-1177.5v-3.6h5c0.7,0,1.3-0.6,1.3-1.3c0-0.7-0.6-1.3-1.3-1.3h-5v-2.9h5
		c0.7,0,1.3-0.6,1.3-1.3c0-0.7-0.6-1.3-1.3-1.3h-5v-2.4h9.9c1.4,0,2.6-1.2,2.6-2.6c0-1.4-1.2-2.6-2.6-2.6h-9.9v-2.3h5
		c0.7,0,1.3-0.6,1.3-1.3c0-0.7-0.6-1.3-1.3-1.3h-5v-2.9h5c0.7,0,1.3-0.6,1.3-1.3c0-0.7-0.6-1.3-1.3-1.3h-5v-2.1h9.9
		c1.4,0,2.6-1.2,2.6-2.6c0-1.4-1.2-2.6-2.6-2.6h-9.9v-6.7h19.4c3.2,0,5.8,2.6,5.8,5.8v32.1c0,3.2-2.6,5.8-5.8,5.8L58.3-1177.5
		L58.3-1177.5z"/>
</g>
<g>
	<path fill="#C69D69" d="M51.3-2408.3l0.9-4.8c1.8-9.3,6.6-22.1,19-29.6l4.8-2.9l-29.4-18c-3.5-2.2-7.6-3.3-11.7-3.3
		c-7.9,0-15,4-19.1,10.7c-6.4,10.5-3.1,24.3,7.4,30.8L51.3-2408.3z M21.7-2452.6c2.8-4.7,7.8-7.4,13.3-7.4c2.9,0,5.7,0.8,8.1,2.3
		l20.2,12.3c-9.7,7.7-14.4,18.3-16.6,26.3l-19.8-12.1C19.5-2435.7,17.2-2445.3,21.7-2452.6z"/>
	<path fill="#C69D69" d="M107.4-2425.4l-26.3-16.1l-0.5,0.2c-3.1,1.3-5.7,2.9-8,4.8l25.3,15.4c1,0.6,1.3,1.8,0.7,2.8
		c-0.4,0.6-1.1,1-1.7,1c-0.4,0-0.7-0.1-1.1-0.3l-25.4-15.5c-0.3-0.2-0.6-0.5-0.7-0.9c-9.3,9.1-11.9,21.4-12.6,27.3L57-2406l28,17.1
		c3.4,2.1,7.2,3.1,11.2,3.1c7.5,0,14.4-3.8,18.3-10.2C120.6-2406,117.5-2419.2,107.4-2425.4z"/>
</g>
<g>
	<g>
		<path fill="#C69D69" d="M-0.1-1953.4v70.1c0,5.7,4.6,10.2,10.2,10.2h113.1c5.7,0,10.2-4.6,10.2-10.2v-70.1
			c0-5.7-4.6-10.2-10.2-10.2H10.1C4.5-1963.6-0.1-1959.1-0.1-1953.4z M104.8-1948.9c3.1,0,5.5,2.5,5.5,5.5c0,3.1-2.5,5.5-5.5,5.5
			c-3.1,0-5.5-2.5-5.5-5.5C99.2-1946.5,101.7-1948.9,104.8-1948.9L104.8-1948.9z M93-1952.1v36.2H69.5l-6.1,17.2l-7.8-17.2h-8.3
			l-9.9-34.3l-10.1,34.3H11.4v-36.2H93z M11.4-1884.6v-26.9h19.1l6.8-23.2l6.7,23.2h8.7l11,24.4l8.7-24.4H93v26.9H11.4z M104.8-1934
			c3.1,0,5.5,2.5,5.5,5.5c0,3.1-2.5,5.5-5.5,5.5c-3.1,0-5.5-2.5-5.5-5.5C99.2-1931.5,101.7-1934,104.8-1934L104.8-1934z
			 M111.5-1891.4h-10.8v-6.9h10.8V-1891.4z M111.5-1903.4h-10.8v-6.9h10.8V-1903.4z M125.9-1891.4h-10.8v-6.9h10.8V-1891.4z
			 M125.9-1903.4h-10.8v-6.9h10.8V-1903.4z M121.4-1922.9c-3.1,0-5.5-2.5-5.5-5.5c0-3.1,2.5-5.5,5.5-5.5c3.1,0,5.5,2.5,5.5,5.5
			C126.9-1925.4,124.4-1922.9,121.4-1922.9L121.4-1922.9z M121.4-1937.8c-3.1,0-5.5-2.5-5.5-5.5c0-3.1,2.5-5.5,5.5-5.5
			c3.1,0,5.5,2.5,5.5,5.5C126.9-1940.3,124.4-1937.8,121.4-1937.8L121.4-1937.8z M121.4-1937.8"/>
	</g>
</g>
<g>
	<g>
		<path fill="#99BC70" d="M94.1-1720.2c-2.9-0.5-5.6,1.4-6.1,4.3c-0.4,2.3,0.7,4.4,2.6,5.5l-6.3,35.6l0.3,3.6l-6.5,36.6l-0.9,6.2
			l-9.5-9.5v-33.3l0.9-3.5v-36.1c2-0.7,3.5-2.7,3.5-5c0-2.9-2.4-5.3-5.3-5.3s-5.3,2.4-5.3,5.3c0,2.3,1.5,4.2,3.5,5v36.1l0.9,3.5
			v31.6L54-1651.7l-5.2-19.6l-0.1-3.6l-9.3-34.9c1.8-1.2,2.7-3.5,2.1-5.7c-0.7-2.8-3.6-4.5-6.5-3.7c-2.8,0.7-4.5,3.6-3.7,6.4
			c0.6,2.2,2.5,3.7,4.7,3.9l9.3,34.9l1.7,3.2l4,14.9l-25.4-25.4c0.9-2,0.6-4.4-1-6c-2.1-2.1-5.4-2.1-7.5,0c-2.1,2.1-2.1,5.4,0,7.5
			c1.6,1.6,4,1.9,6,1l25.5,25.6l3.1,1.9l0.6,0.6l4.3,15.9l7,22.8l-5.3-23.2l-3.5-13l11.1,11.1v3.1l0.9,23.8l0.9-23.8v-1.4l9.2,9.2
			l-2.1,15.2l3.1-14.2l0.2,0.2l17.5,16.2l-16.2-17.4l-1-1l1.5-7l6.5-36.6l1.5-3.3l6.3-35.6c2.1-0.4,3.9-2,4.3-4.3
			C98.9-1717,97-1719.7,94.1-1720.2L94.1-1720.2z M63.4-1715.8c0-1.9,1.6-3.5,3.5-3.5s3.5,1.6,3.5,3.5c0,1.9-1.6,3.5-3.5,3.5
			S63.4-1713.8,63.4-1715.8L63.4-1715.8z M37.2-1710.7c-1.9,0.5-3.8-0.6-4.3-2.5c-0.5-1.9,0.6-3.8,2.5-4.3c1.9-0.5,3.8,0.6,4.3,2.5
			C40.2-1713.1,39.1-1711.2,37.2-1710.7L37.2-1710.7z M23.4-1681c-1.4,1.4-3.6,1.4-5,0c-1.4-1.4-1.4-3.6,0-5c1.4-1.4,3.6-1.4,5,0
			C24.7-1684.6,24.7-1682.4,23.4-1681L23.4-1681z M92.6-1711.5c-1.9-0.3-3.2-2.2-2.8-4.1c0.3-1.9,2.2-3.2,4.1-2.9
			c1.9,0.3,3.2,2.2,2.8,4.1C96.3-1712.5,94.5-1711.2,92.6-1711.5L92.6-1711.5z M92.6-1711.5"/>
	</g>
</g>
<path fill="#0D918E" d="M120.7-2683.8v-37.1c0-7.5-4.9-18.5-18.5-18.5c-11.4,0-16.7,7.8-18.1,14.8c-5.5,1.8-9.6,6.9-9.6,13H102
	c0-5.8-3.5-10.7-8.6-12.7c0.9-2.7,3.1-5.8,8.7-5.8c8.5,0,9.2,7.1,9.3,9.3v37.1H9.5c-2.6,0-4.6,2.1-4.6,4.6v4.6
	c0,2.6,2.1,4.6,4.6,4.6v13.9c0,10,8.5,19.9,18.3,22.5c-0.5,2.3-1.6,5.3-4.4,5.3c-2.6,0-4.6,2.1-4.6,4.6c0,2.6,2.1,4.6,4.6,4.6
	c8,0,12.7-6.7,13.7-13.9h56c1,7.2,5.7,13.9,13.7,13.9c2.6,0,4.6-2.1,4.6-4.6c0-2.6-2.1-4.6-4.6-4.6c-2.7,0-3.9-3-4.4-5.3
	c9.8-2.6,18.3-12.5,18.3-22.5v-13.9c2.6,0,4.6-2.1,4.6-4.6v-4.6C125.3-2681.7,123.3-2683.8,120.7-2683.8z M111.4-2656
	c0,6.6-7.3,13.9-13.9,13.9H32.6c-6.5,0-13.9-7.4-13.9-13.9v-13.9h92.7V-2656z M76.5-2706.4l0.3-1.1c0.3-1.2,1.5-2,2.8-1.7
	c1.2,0.3,2,1.6,1.7,2.8l-0.3,1.1c-0.3,1.1-1.2,1.8-2.2,1.8c-0.2,0-0.4,0-0.6-0.1C76.9-2703.9,76.2-2705.1,76.5-2706.4z M74.2-2697.3
	l0.5-1.8c0.3-1.2,1.5-2,2.8-1.7c1.2,0.3,2,1.6,1.7,2.8l-0.5,1.8c-0.3,1.1-1.2,1.8-2.2,1.8c-0.2,0-0.4,0-0.6-0.1
	C74.6-2694.8,73.9-2696.1,74.2-2697.3z M72.1-2689l0.3-1.1c0.3-1.2,1.5-2,2.8-1.7c1.2,0.3,2,1.6,1.7,2.8l-0.3,1.1
	c-0.3,1.1-1.2,1.8-2.2,1.8c-0.2,0-0.4,0-0.6-0.1C72.5-2686.5,71.8-2687.7,72.1-2689z M100.1-2706.4c0.3,1.2-0.4,2.5-1.7,2.8
	c-0.2,0-0.4,0.1-0.6,0.1c-1,0-2-0.7-2.2-1.8l-0.3-1.1c-0.3-1.2,0.4-2.5,1.7-2.8c1.2-0.3,2.5,0.4,2.8,1.7L100.1-2706.4z
	 M102.3-2697.3c0.3,1.2-0.4,2.5-1.7,2.8c-0.2,0-0.4,0.1-0.6,0.1c-1,0-2-0.7-2.2-1.8l-0.5-1.8c-0.3-1.2,0.5-2.5,1.7-2.8
	c1.2-0.3,2.5,0.4,2.8,1.7L102.3-2697.3z M101.3-2691.8c1.2-0.3,2.5,0.4,2.8,1.7l0.3,1.1c0.3,1.2-0.4,2.5-1.7,2.8
	c-0.2,0.1-0.4,0.1-0.6,0.1c-1,0-2-0.7-2.2-1.8l-0.3-1.1C99.3-2690.2,100.1-2691.5,101.3-2691.8z M85.9-2705.8v-1.2
	c0-1.3,1-2.3,2.3-2.3c1.3,0,2.3,1,2.3,2.3v1.2c0,1.3-1,2.3-2.3,2.3C87-2703.5,85.9-2704.5,85.9-2705.8z M85.9-2698.6
	c0-1.3,1-2.3,2.3-2.3c1.3,0,2.3,1,2.3,2.3v1.8c0,1.3-1,2.3-2.3,2.3c-1.3,0-2.3-1-2.3-2.3V-2698.6z M85.9-2689.6c0-1.3,1-2.3,2.3-2.3
	c1.3,0,2.3,1,2.3,2.3v1.2c0,1.3-1,2.3-2.3,2.3c-1.3,0-2.3-1-2.3-2.3V-2689.6z"/>
<g>
	<path fill="#D16C7D" d="M115.4-731.2l-23,26c-1.4-0.9-3.2-0.6-4.3,0.6l-5.8,6.6c-2.4-0.6-5.1,0.2-6.9,2.2l-44.3,50.2l-4-3.6
		c-0.8-0.7-2.1-0.7-2.9,0.2c-0.7,0.8-0.7,2.1,0.2,2.9l6.6,5.8l-13.1,14.9l-2.9-2.6c-0.8-0.7-2.1-0.7-2.9,0.2
		c-0.7,0.8-0.7,2.1,0.2,2.9l11.4,10c0.8,0.7,2.1,0.7,2.9-0.2c0.7-0.8,0.7-2.1-0.2-2.9l-2.9-2.6l13.1-14.9l6.6,5.8
		c0.8,0.7,2.1,0.7,2.9-0.2c0.7-0.8,0.7-2.1-0.2-2.8l-4-3.6l44.3-50.2c1.8-2,2.2-4.7,1.3-7.1l5.8-6.6c1-1.2,1.1-2.9,0.2-4.1l23-26.1
		c0.2-0.3,0.2-0.7-0.1-1C116.1-731.5,115.7-731.5,115.4-731.2z M84.1-688.2l-22.4,25.4l-1.4-1.2l21.5-24.4c0.4-0.4,0.3-1.1-0.1-1.4
		c-0.4-0.4-1.1-0.3-1.4,0.1l-21.5,24.4l-3.6-3.2L77.5-694c1.6-1.8,4.4-2,6.2-0.4C85.5-692.7,85.7-690,84.1-688.2z"/>
</g>
<g>
	<path fill="#0D918E" d="M79.5-2159.3c0.8,0.5,1.6,0.8,2.5,0.9c1.5,0.1,3.1-0.3,4.3-1.4c2.4-2.1,2.6-5.7,0.5-8l-2.2-2.5l23.8-23.8
		c5-5,5-13.1,0-18.1c-5-5-13.1-5-18.1,0l-22.8,22.8l-1.5-1.6c-2.1-2.4-5.7-2.6-8-0.5c-2.4,2.1-2.6,5.7-0.5,8L79.5-2159.3z"/>
	<path fill="#0D918E" d="M45.1-2130.8l29.6-29.6l-12.8-14.1l-26.8,27.4c-0.4,0.4-0.8,0.6-1.3,0.6c-0.5,0-0.9-0.2-1.3-0.5
		c-0.7-0.7-0.7-1.9,0-2.6l26.9-27.4c0,0,0.1,0,0.1-0.1l-2-2.2L27-2148.9c-4.2,4.2-4.9,10.6-2,15.5l-6.3,6.9c-1,1.1-0.9,2.9,0.2,3.9
		c0.5,0.5,1.2,0.7,1.9,0.7c0.8,0,1.5-0.3,2.1-0.9l5.9-6.5c2.2,1.5,4.8,2.3,7.3,2.3C39.3-2127,42.6-2128.3,45.1-2130.8z"/>
</g>
<path fill="#D16C7D" d="M59.4-1376.5L59.4-1376.5c7.5-7.7,9.5-18.9,5.8-28.3c1.3,0.2,2.8-0.2,3.8-1.2c1.7-1.7,1.7-4.5,0-6.3
	l-2.6-2.6l48-48c1.7-1.7,1.7-4.5,0-6.3c-1.7-1.7-4.5-1.7-6.3,0l-48,48l-4.1-4.1c-1.7-1.7-4.5-1.7-6.3,0c-1.3,1.3-1.6,3.2-1,4.8
	c-9.2-3.1-19.8-1-27.2,6.2l-1.5-1.5c-1.7-1.7-4.5-1.7-6.3,0s-1.7,4.5,0,6.3l39.2,39.2c1.7,1.7,4.5,1.7,6.3,0
	C61.1-1372,61.1-1374.8,59.4-1376.5z"/>
</svg>
