<?xml version="1.0" encoding="utf-8"?>
<!-- Generator: Adobe Illustrator 18.1.0, SVG Export Plug-In . SVG Version: 6.00 Build 0)  -->
<!DOCTYPE svg PUBLIC "-//W3C//DTD SVG 1.1//EN" "http://www.w3.org/Graphics/SVG/1.1/DTD/svg11.dtd">
<svg version="1.1" id="Layer_1" xmlns="http://www.w3.org/2000/svg" xmlns:xlink="http://www.w3.org/1999/xlink" x="0px" y="0px"
	 viewBox="0 0 180 181.9" enable-background="new 0 0 180 181.9" xml:space="preserve">
<polygon fill="#638693" points="90.3,2367.7 37.9,2367.7 64.1,2322.3 90.3,2277 116.5,2322.3 142.7,2367.7 "/>
<polygon fill="#638693" points="90.3,2488.4 142.7,2488.4 116.5,2533.8 90.3,2579.1 64.1,2533.8 37.9,2488.4 "/>
<g>
	<path fill="#D16C7D" d="M101.9,1383.9v-3.5c0-0.5-0.4-1-1-1h-27c-0.5,0-1,0.4-1,1v3.5c0,0.5,0.4,1,1,1h27
		C101.5,1384.8,101.9,1384.4,101.9,1383.9L101.9,1383.9z M101.9,1383.9"/>
	<g>
		<path fill="#D16C7D" d="M77.8,1388.2c-0.5,0-1,0.4-1,1v3.5c0,0.5,0.4,1,1,1H97c0.5,0,1-0.4,1-1v-3.5c0-0.5-0.4-1-1-1H77.8z
			 M77.8,1388.2"/>
		<path fill="#D16C7D" d="M133.9,1344.1c-0.2-0.3-0.5-0.5-0.9-0.6l-5.2-0.8c-0.5-0.1-0.9,0.1-1.2,0.5l-18,21.9
			c-0.3,0.4-0.4,1-0.1,1.5c1.5,2.6,3,5.6,4.9,9.5l-0.2,0.7c-1.9,5.4-4,10-5.8,13l-0.1,0.1c0,0,0,0,0,0.1l-0.1,0.1
			c-1.8,3.4-4.8,6.5-8.2,8.7c-3.6,2.3-7.6,3.5-11.4,3.5c-8.5,0-16.1-6.3-19.8-12.5c0,0,0,0,0,0c-1.8-3-3.9-7.6-5.8-13
			c0,0-0.1-0.3-0.2-0.7c1.8-3.9,3.4-6.9,4.8-9.5c0.3-0.5,0.2-1.1-0.1-1.5l-17.9-21.7c-0.3-0.3-0.7-0.5-1.2-0.5l-5.3,0.6
			c-0.4,0-0.7,0.3-0.9,0.6c-0.2,0.3-0.3,0.7-0.2,1.1l4.9,16.5c0.1,0.4,0.4,0.7,0.8,0.9c1.2,0.5,2.2,1.9,2.7,3.9c0,0,0,0,0,0
			c1.1,4.1,3.5,11.1,6.2,17.5c1.6,4.1,3.3,7.6,4.9,10.2c4.6,7.7,14.5,16.6,27.1,16.6c10.8,0,21.7-6.7,27.1-16.6
			c1.6-2.7,3.3-6.1,4.9-10.2c2.8-6.4,5.1-13.4,6.2-17.5c0,0,0,0,0,0c0.5-2,1.4-3.4,2.7-3.9c0.3-0.1,0.6-0.3,0.7-0.6l5-16.9
			C134.1,1344.8,134.1,1344.4,133.9,1344.1L133.9,1344.1z M133.9,1344.1"/>
	</g>
	<path fill="#D16C7D" d="M97,1376c0.5,0,1-0.4,1-1v-3.5c0-0.5-0.4-1-1-1H77.8c-0.5,0-1,0.4-1,1v3.5c0,0.5,0.4,1,1,1H97z M97,1376"/>
	<g>
		<path fill="#D16C7D" d="M123.6,1341.3c0.3-0.3,0.4-0.8,0.2-1.2c-0.1-0.4-0.5-0.8-0.9-0.9c-6.5-1.7-11.5-4.8-14.9-9.3
			c-2.6-3.4-4.1-7.5-4.6-12.2c0-0.4-0.3-0.8-0.7-1c-0.4-0.2-0.8-0.2-1.2-0.1c-4.6,2.1-11.4,4.5-17.5,4.5c-2.5,0-4.7-0.4-6.5-1.2
			c-2.7-1.1-4.7-3.1-6.1-5.7c-0.3-0.5-0.9-0.8-1.5-0.7c-13.8,3.5-19.1,17-21,24.7c-0.1,0.4,0,0.8,0.3,1.2l18.6,21.9
			c0.2,0.3,0.6,0.5,1,0.5c0,0,0,0,0.1,0c0.4,0,0.8-0.2,1-0.5c5.2-7.2,10.6-10.4,17.6-10.4c7,0,12.4,3.2,17.6,10.4
			c0.2,0.3,0.6,0.5,1,0.5c0.4,0,0.8-0.2,1.1-0.5L123.6,1341.3z M123.6,1341.3"/>
		<path fill="#D16C7D" d="M46.7,1314.3l0.6,9.3c0,0.6,0.5,1.2,1.1,1.3c0.6,0.1,1.2-0.2,1.5-0.7c5.2-10,13.5-16,23.8-17.2
			c0,0,1.6-0.2,2.1,0.3c0.4,0.4,0.8,1.7,0.8,1.7c0.6,2.6,1.9,4.3,3.9,5.2c1.2,0.5,2.6,0.7,4.2,0.7c7.1,0,17.2-5.2,20.1-6.7
			c2.5-1.4,4.6-0.9,3.9,2.8c-0.1,0.8-1.4,8.2,3.4,14.5c2.8,3.7,7.2,6.2,13.2,7.3c0.4,0.1,0.9-0.1,1.1-0.3c0.3-0.2,0.5-0.6,0.5-1
			l1.1-17.3c0,0,0.7-7.2-3.9-13.1c-5.9-7.5-18.9-11.2-36.8-11.2c-17.9,0-30.8,3.8-36.8,11.2C45.8,1307,46.7,1313,46.7,1314.3
			L46.7,1314.3z M46.7,1314.3"/>
	</g>
</g>
<g>
	<path fill="#638693" d="M134.5,1888.6h-89c-9.4,0-17-7.6-17-17v-89c0-9.4,7.6-17,17-17h89c9.4,0,17,7.6,17,17v89
		C151.5,1881,143.9,1888.6,134.5,1888.6z"/>
	<g>
		<g>
			<path fill="#D5EEF7" d="M114.5,1799.1c-4.2-4.2-9.2-7.3-14.6-9.1v11.4c2.6,1.3,5,2.9,7.1,5.1c10.6,10.6,10.6,27.9,0,38.5
				c-10.6,10.6-27.9,10.6-38.5,0c-10.6-10.6-10.6-27.9,0-38.5c0,0,0.1-0.1,0.2-0.1l6.3,6.3l-0.1-20l-19.9,0l6.3,6.3
				c-0.1,0.1-0.1,0.1-0.2,0.2c-14.7,14.7-14.7,38.6,0,53.3c14.8,14.7,38.6,14.7,53.4,0C129.2,1837.7,129.2,1813.8,114.5,1799.1
				L114.5,1799.1z M114.5,1799.1"/>
		</g>
	</g>
</g>
<g>
	<path fill="#638693" d="M134.5,2139.6h-89c-9.4,0-17-7.6-17-17v-89c0-9.4,7.6-17,17-17h89c9.4,0,17,7.6,17,17v89
		C151.5,2132,143.9,2139.6,134.5,2139.6z"/>
	<g>
		<path fill="#D5EEF7" d="M71,2044.7h38.7v9.7h4.8v-9.7c0-2.7-2.2-4.8-4.8-4.8H71c-2.7,0-4.8,2.2-4.8,4.8v9.7H71V2044.7z M71,2044.7
			"/>
		<path fill="#D5EEF7" d="M124.1,2059.2H56.5c-2.7,0-4.8,2.2-4.8,4.8v24.2c0,2.7,2.2,4.8,4.8,4.8h9.7v19.3c0,2.7,2.2,4.8,4.8,4.8
			h38.7c2.7,0,4.8-2.2,4.8-4.8V2093h9.7c2.7,0,4.8-2.2,4.8-4.8v-24.2C129,2061.4,126.8,2059.2,124.1,2059.2L124.1,2059.2z
			 M109.7,2112.4H71v-33.8h38.7V2112.4z M119.3,2073.7c-2.7,0-4.8-2.2-4.8-4.8c0-2.7,2.2-4.8,4.8-4.8c2.7,0,4.8,2.2,4.8,4.8
			C124.1,2071.6,122,2073.7,119.3,2073.7L119.3,2073.7z M119.3,2073.7"/>
		<rect x="75.8" y="2083.4" fill="#D5EEF7" width="19.3" height="4.8"/>
		<rect x="75.8" y="2093" fill="#D5EEF7" width="29" height="4.8"/>
		<rect x="75.8" y="2102.7" fill="#D5EEF7" width="29" height="4.8"/>
	</g>
</g>
<g>
	<path fill="#9374B4" d="M98.6,1115.7v-4.4h8.3c7.5,0,13.6-6.1,13.6-13.6v-58.9c0-7.5-6.1-13.6-13.6-13.6H68
		c-7.5,0-13.6,6.1-13.6,13.6v58.9c0,7.5,6.1,13.6,13.6,13.6h8.3v4.4c0,3,2.5,5.5,5.5,5.5h3c0.1,6.1,1.2,18.2,8.3,22.8
		c5.5,3.6,5.4,15.2,4.9,19.4c-0.2,1.4,0.8,2.7,2.3,2.9c0.1,0,0.2,0,0.3,0c1.3,0,2.4-1,2.6-2.3c0.1-0.7,2.1-18.3-7.2-24.4
		c-4.6-3-5.8-12.6-5.9-18.5h3.1C96.1,1121.2,98.6,1118.7,98.6,1115.7z M76.4,1045.4h-4.1c-1.4,0-2.6,1.2-2.6,2.6
		c0,1.4,1.2,2.6,2.6,2.6h4.1v2.1h-2.4c-0.7,0-1.3,0.6-1.3,1.3c0,0.7,0.6,1.3,1.3,1.3h2.4v2.9h-2.4c-0.7,0-1.3,0.6-1.3,1.3
		c0,0.7,0.6,1.3,1.3,1.3h2.4v2.3h-4.1c-1.4,0-2.6,1.2-2.6,2.6c0,1.4,1.2,2.6,2.6,2.6h4.1v2.4h-2.4c-0.7,0-1.3,0.6-1.3,1.3
		s0.6,1.3,1.3,1.3h2.4v2.9h-2.4c-0.7,0-1.3,0.6-1.3,1.3s0.6,1.3,1.3,1.3h2.4v3.6h-2.9c-3.2,0-5.8-2.6-5.8-5.8v-32.1
		c0-3.2,2.6-5.8,5.8-5.8h2.9V1045.4z M81.6,1082.4v-3.6h5c0.7,0,1.3-0.6,1.3-1.3c0-0.7-0.6-1.3-1.3-1.3h-5v-2.9h5
		c0.7,0,1.3-0.6,1.3-1.3s-0.6-1.3-1.3-1.3h-5v-2.4h9.9c1.4,0,2.6-1.2,2.6-2.6c0-1.4-1.2-2.6-2.6-2.6h-9.9v-2.3h5
		c0.7,0,1.3-0.6,1.3-1.3c0-0.7-0.6-1.3-1.3-1.3h-5v-2.9h5c0.7,0,1.3-0.6,1.3-1.3c0-0.7-0.6-1.3-1.3-1.3h-5v-2.1h9.9
		c1.4,0,2.6-1.2,2.6-2.6c0-1.4-1.2-2.6-2.6-2.6h-9.9v-6.7H101c3.2,0,5.8,2.6,5.8,5.8v32.1c0,3.2-2.6,5.8-5.8,5.8L81.6,1082.4
		L81.6,1082.4z"/>
</g>
<g>
	<path fill="#C69D69" d="M74.6-148.4l0.9-4.8c1.8-9.3,6.6-22.1,19-29.6l4.8-2.9l-29.4-18c-3.5-2.2-7.6-3.3-11.7-3.3
		c-7.9,0-15,4-19.1,10.7c-6.4,10.5-3.1,24.3,7.4,30.8L74.6-148.4z M45-192.7c2.8-4.7,7.8-7.4,13.3-7.4c2.9,0,5.7,0.8,8.1,2.3
		l20.2,12.3c-9.7,7.7-14.4,18.3-16.6,26.3l-19.8-12.1C42.8-175.8,40.5-185.4,45-192.7z"/>
	<path fill="#C69D69" d="M130.7-165.5l-26.3-16.1l-0.5,0.2c-3.1,1.3-5.7,2.9-8,4.8l25.3,15.4c1,0.6,1.3,1.8,0.7,2.8
		c-0.4,0.6-1.1,1-1.7,1c-0.4,0-0.7-0.1-1.1-0.3l-25.4-15.5c-0.3-0.2-0.6-0.5-0.7-0.9c-9.3,9.1-11.9,21.4-12.6,27.3l-0.1,0.6l28,17.1
		c3.4,2.1,7.2,3.1,11.2,3.1c7.5,0,14.4-3.8,18.3-10.2C144-146.1,140.8-159.3,130.7-165.5z"/>
</g>
<g>
	<g>
		<path fill="#C69D69" d="M23.2,306.5v70.1c0,5.7,4.6,10.2,10.2,10.2h113.1c5.7,0,10.2-4.6,10.2-10.2v-70.1
			c0-5.7-4.6-10.2-10.2-10.2H33.4C27.8,296.3,23.2,300.9,23.2,306.5z M128.1,311c3.1,0,5.5,2.5,5.5,5.5c0,3.1-2.5,5.5-5.5,5.5
			c-3.1,0-5.5-2.5-5.5-5.5C122.5,313.5,125,311,128.1,311L128.1,311z M116.4,307.8v36.2H92.8l-6.1,17.2l-7.8-17.2h-8.3l-9.9-34.3
			l-10.1,34.3H34.8v-36.2H116.4z M34.8,375.3v-26.9h19.1l6.8-23.2l6.7,23.2h8.7l11,24.4l8.7-24.4h20.5v26.9H34.8z M128.1,325.9
			c3.1,0,5.5,2.5,5.5,5.5c0,3.1-2.5,5.5-5.5,5.5c-3.1,0-5.5-2.5-5.5-5.5C122.5,328.4,125,325.9,128.1,325.9L128.1,325.9z
			 M134.8,368.5H124v-6.9h10.8V368.5z M134.8,356.5H124v-6.9h10.8V356.5z M149.3,368.5h-10.8v-6.9h10.8V368.5z M149.3,356.5h-10.8
			v-6.9h10.8V356.5z M144.7,337c-3.1,0-5.5-2.5-5.5-5.5c0-3.1,2.5-5.5,5.5-5.5c3.1,0,5.5,2.5,5.5,5.5
			C150.2,334.5,147.7,337,144.7,337L144.7,337z M144.7,322.1c-3.1,0-5.5-2.5-5.5-5.5c0-3.1,2.5-5.5,5.5-5.5c3.1,0,5.5,2.5,5.5,5.5
			C150.2,319.6,147.7,322.1,144.7,322.1L144.7,322.1z M144.7,322.1"/>
	</g>
</g>
<g>
	<g>
		<path fill="#99BC70" d="M117.4,539.7c-2.9-0.5-5.6,1.4-6.1,4.3c-0.4,2.3,0.7,4.4,2.6,5.5l-6.3,35.6l0.3,3.6l-6.5,36.6l-0.9,6.2
			l-9.5-9.5v-33.3l0.9-3.5v-36.1c2-0.7,3.5-2.7,3.5-5c0-2.9-2.4-5.3-5.3-5.3s-5.3,2.4-5.3,5.3c0,2.3,1.5,4.2,3.5,5v36.1l0.9,3.5
			v31.6l-12.1-12.1L72,588.7l-0.1-3.6l-9.3-34.9c1.8-1.2,2.7-3.5,2.1-5.7c-0.7-2.8-3.6-4.5-6.5-3.7c-2.8,0.7-4.5,3.6-3.7,6.4
			c0.6,2.2,2.5,3.7,4.7,3.9l9.3,34.9l1.7,3.2l4,14.9l-25.4-25.4c0.9-2,0.6-4.4-1-6c-2.1-2.1-5.4-2.1-7.5,0c-2.1,2.1-2.1,5.4,0,7.5
			c1.6,1.6,4,1.9,6,1L72,606.7l3.1,1.9l0.6,0.6l4.3,15.9l7,22.8l-5.3-23.2l-3.5-13l11.1,11.1v3.1l0.9,23.8l0.9-23.8v-1.4l9.2,9.2
			l-2.1,15.2l3.1-14.2l0.2,0.2l17.5,16.2l-16.2-17.4l-1-1l1.5-7l6.5-36.6l1.5-3.3l6.3-35.6c2.1-0.4,3.9-2,4.3-4.3
			C122.2,543,120.3,540.2,117.4,539.7L117.4,539.7z M86.7,544.1c0-1.9,1.6-3.5,3.5-3.5s3.5,1.6,3.5,3.5s-1.6,3.5-3.5,3.5
			S86.7,546.1,86.7,544.1L86.7,544.1z M60.5,549.3c-1.9,0.5-3.8-0.6-4.3-2.5c-0.5-1.9,0.6-3.8,2.5-4.3c1.9-0.5,3.8,0.6,4.3,2.5
			C63.5,546.8,62.4,548.8,60.5,549.3L60.5,549.3z M46.7,578.9c-1.4,1.4-3.6,1.4-5,0c-1.4-1.4-1.4-3.6,0-5c1.4-1.4,3.6-1.4,5,0
			C48,575.3,48,577.5,46.7,578.9L46.7,578.9z M115.9,548.4c-1.9-0.3-3.2-2.2-2.8-4.1c0.3-1.9,2.2-3.2,4.1-2.9
			c1.9,0.3,3.2,2.2,2.8,4.1C119.6,547.4,117.8,548.7,115.9,548.4L115.9,548.4z M115.9,548.4"/>
	</g>
</g>
<path fill="#0D918E" d="M144-423.8v-37.1c0-7.5-4.9-18.5-18.5-18.5c-11.4,0-16.7,7.8-18.1,14.8c-5.5,1.8-9.6,6.9-9.6,13h27.5
	c0-5.8-3.5-10.7-8.6-12.7c0.9-2.7,3.1-5.8,8.7-5.8c8.5,0,9.2,7.1,9.3,9.3v37.1h-102c-2.6,0-4.6,2.1-4.6,4.6v4.6
	c0,2.6,2.1,4.6,4.6,4.6v13.9c0,10,8.5,19.9,18.3,22.5c-0.5,2.3-1.6,5.3-4.4,5.3c-2.6,0-4.6,2.1-4.6,4.6c0,2.6,2.1,4.6,4.6,4.6
	c8,0,12.7-6.7,13.7-13.9h56c1,7.2,5.7,13.9,13.7,13.9c2.6,0,4.6-2.1,4.6-4.6c0-2.6-2.1-4.6-4.6-4.6c-2.7,0-3.9-3-4.4-5.3
	c9.8-2.6,18.3-12.5,18.3-22.5v-13.9c2.6,0,4.6-2.1,4.6-4.6v-4.6C148.6-421.8,146.6-423.8,144-423.8z M134.7-396
	c0,6.6-7.3,13.9-13.9,13.9H56c-6.5,0-13.9-7.4-13.9-13.9v-13.9h92.7V-396z M99.8-446.5l0.3-1.1c0.3-1.2,1.5-2,2.8-1.7
	c1.2,0.3,2,1.6,1.7,2.8l-0.3,1.1c-0.3,1.1-1.2,1.8-2.2,1.8c-0.2,0-0.4,0-0.6-0.1C100.2-444,99.5-445.2,99.8-446.5z M97.5-437.4
	l0.5-1.8c0.3-1.2,1.5-2,2.8-1.7c1.2,0.3,2,1.6,1.7,2.8l-0.5,1.8c-0.3,1.1-1.2,1.8-2.2,1.8c-0.2,0-0.4,0-0.6-0.1
	C98-434.9,97.2-436.2,97.5-437.4z M95.4-429l0.3-1.1c0.3-1.2,1.5-2,2.8-1.7c1.2,0.3,2,1.6,1.7,2.8l-0.3,1.1
	c-0.3,1.1-1.2,1.8-2.2,1.8c-0.2,0-0.4,0-0.6-0.1C95.9-426.5,95.1-427.8,95.4-429z M123.4-446.5c0.3,1.2-0.4,2.5-1.7,2.8
	c-0.2,0-0.4,0.1-0.6,0.1c-1,0-2-0.7-2.2-1.8l-0.3-1.1c-0.3-1.2,0.4-2.5,1.7-2.8c1.2-0.3,2.5,0.4,2.8,1.7L123.4-446.5z M125.6-437.4
	c0.3,1.2-0.4,2.5-1.7,2.8c-0.2,0-0.4,0.1-0.6,0.1c-1,0-2-0.7-2.2-1.8l-0.5-1.8c-0.3-1.2,0.5-2.5,1.7-2.8c1.2-0.3,2.5,0.4,2.8,1.7
	L125.6-437.4z M124.6-431.8c1.2-0.3,2.5,0.4,2.8,1.7l0.3,1.1c0.3,1.2-0.4,2.5-1.7,2.8c-0.2,0.1-0.4,0.1-0.6,0.1c-1,0-2-0.7-2.2-1.8
	l-0.3-1.1C122.6-430.3,123.4-431.5,124.6-431.8z M109.3-445.9v-1.2c0-1.3,1-2.3,2.3-2.3c1.3,0,2.3,1,2.3,2.3v1.2
	c0,1.3-1,2.3-2.3,2.3C110.3-443.5,109.3-444.6,109.3-445.9z M109.3-438.6c0-1.3,1-2.3,2.3-2.3c1.3,0,2.3,1,2.3,2.3v1.8
	c0,1.3-1,2.3-2.3,2.3c-1.3,0-2.3-1-2.3-2.3V-438.6z M109.3-429.6c0-1.3,1-2.3,2.3-2.3c1.3,0,2.3,1,2.3,2.3v1.2c0,1.3-1,2.3-2.3,2.3
	c-1.3,0-2.3-1-2.3-2.3V-429.6z"/>
<g>
	<path fill="#D16C7D" d="M138.7,1528.7l-23,26c-1.4-0.9-3.2-0.6-4.3,0.6l-5.8,6.6c-2.4-0.6-5.1,0.2-6.9,2.2l-44.3,50.2l-4-3.6
		c-0.8-0.7-2.1-0.7-2.9,0.2c-0.7,0.8-0.7,2.1,0.2,2.9l6.6,5.8l-13.1,14.9l-2.9-2.6c-0.8-0.7-2.1-0.7-2.9,0.2
		c-0.7,0.8-0.7,2.1,0.2,2.9l11.4,10c0.8,0.7,2.1,0.7,2.9-0.2c0.7-0.8,0.7-2.1-0.2-2.9l-2.9-2.6l13.1-14.9l6.6,5.8
		c0.8,0.7,2.1,0.7,2.9-0.2c0.7-0.8,0.7-2.1-0.2-2.8l-4-3.6l44.3-50.2c1.8-2,2.2-4.7,1.3-7.1l5.8-6.6c1-1.2,1.1-2.9,0.2-4.1l23-26.1
		c0.2-0.3,0.2-0.7-0.1-1C139.4,1528.4,139,1528.5,138.7,1528.7z M107.4,1571.8L85,1597.1l-1.4-1.2l21.5-24.4
		c0.4-0.4,0.3-1.1-0.1-1.4c-0.4-0.4-1.1-0.3-1.4,0.1l-21.5,24.4l-3.6-3.2l22.4-25.4c1.6-1.8,4.4-2,6.2-0.4
		C108.8,1567.2,109,1569.9,107.4,1571.8z"/>
</g>
<g>
	<path fill="#0D918E" d="M102.9,100.7c0.8,0.5,1.6,0.8,2.5,0.9c1.5,0.1,3.1-0.3,4.3-1.4c2.4-2.1,2.6-5.7,0.5-8l-2.2-2.5l23.8-23.8
		c5-5,5-13.1,0-18.1c-5-5-13.1-5-18.1,0L90.9,70.4l-1.5-1.6c-2.1-2.4-5.7-2.6-8-0.5c-2.4,2.1-2.6,5.7-0.5,8L102.9,100.7z"/>
	<path fill="#0D918E" d="M68.4,129.1L98,99.5L85.2,85.5l-26.8,27.4c-0.4,0.4-0.8,0.6-1.3,0.6c-0.5,0-0.9-0.2-1.3-0.5
		c-0.7-0.7-0.7-1.9,0-2.6l26.9-27.4c0,0,0.1,0,0.1-0.1l-2-2.2L50.3,111c-4.2,4.2-4.9,10.6-2,15.5l-6.3,6.9c-1,1.1-0.9,2.9,0.2,3.9
		c0.5,0.5,1.2,0.7,1.9,0.7c0.8,0,1.5-0.3,2.1-0.9l5.9-6.5c2.2,1.5,4.8,2.3,7.3,2.3C62.6,132.9,65.9,131.6,68.4,129.1z"/>
</g>
<path fill="#D16C7D" d="M82.7,883.4L82.7,883.4c7.5-7.7,9.5-18.9,5.8-28.3c1.3,0.2,2.8-0.2,3.8-1.2c1.7-1.7,1.7-4.5,0-6.3l-2.6-2.6
	l48-48c1.7-1.7,1.7-4.5,0-6.3c-1.7-1.7-4.5-1.7-6.3,0l-48,48l-4.1-4.1c-1.7-1.7-4.5-1.7-6.3,0c-1.3,1.3-1.6,3.2-1,4.8
	c-9.2-3.1-19.8-1-27.2,6.2l-1.5-1.5c-1.7-1.7-4.5-1.7-6.3,0c-1.7,1.7-1.7,4.5,0,6.3l39.2,39.2c1.7,1.7,4.5,1.7,6.3,0
	S84.4,885.2,82.7,883.4z"/>
</svg>
