<?xml version="1.0" encoding="utf-8"?>
<!-- Generator: Adobe Illustrator 16.0.3, SVG Export Plug-In . SVG Version: 6.00 Build 0)  -->
<!DOCTYPE svg PUBLIC "-//W3C//DTD SVG 1.1//EN" "http://www.w3.org/Graphics/SVG/1.1/DTD/svg11.dtd">
<svg version="1.1" id="Layer_1" xmlns="http://www.w3.org/2000/svg" xmlns:xlink="http://www.w3.org/1999/xlink" x="0px" y="0px"
	 width="65px" height="66px" viewBox="264.14 385.445 65 66" enable-background="new 264.14 385.445 65 66" xml:space="preserve">
<g>
	<path fill="none" stroke="#FF0000" stroke-width="6.8291" stroke-miterlimit="10" d="M296.599,440.721h-21.082
		c-2.778,0-4.494-2.941-3.105-5.311l10.541-18.223l10.541-18.222c1.389-2.37,4.822-2.37,6.21,0l10.541,18.222l10.541,18.223
		c1.389,2.369-0.326,5.311-3.105,5.311H296.599z"/>
	<path fill="#282828" d="M299.787,412.286l-1.227,13.891c-0.082,0.981-0.898,1.798-1.879,1.798l0,0
		c-0.981,0-1.879-0.816-1.879-1.798l-1.226-13.891c-0.082-1.063,0.817-1.962,1.879-1.962h2.533
		C298.968,410.324,299.869,411.223,299.787,412.286z"/>
	<circle fill="#282828" cx="296.599" cy="432.387" r="2.533"/>
</g>
</svg>
